<?xml version="1.0" encoding="UTF-8"?>
<svg width="17px" height="13px" viewBox="0 0 17 13" version="1.1" xmlns="http://www.w3.org/2000/svg" xmlns:xlink="http://www.w3.org/1999/xlink">
    <!-- Generator: Sketch 56 (81588) - https://sketch.com -->
    <title>取消发布</title>
    <desc>Created with Sketch.</desc>
    <g id="页面-1" stroke="none" stroke-width="1" fill="none" fill-rule="evenodd">
        <g id="指标管理" transform="translate(-1288.000000, -351.000000)" fill-rule="nonzero">
            <g id="取消发布" transform="translate(1286.000000, 348.000000)">
                <rect id="矩形" fill="#000000" opacity="0" x="0" y="0" width="20" height="20"></rect>
                <path d="M14.9,9.64 L12.88,6.42 C12.68,6.1 12.84,5.84 13.24,5.84 L14.44,5.84 L14.44,3.34 C14.44,3.15 14.59,3 14.76,3 L15.77,3 C15.95,3 16.09,3.15 16.09,3.34 L16.09,5.84 L17.25,5.84 C17.65,5.84 17.81,6.1 17.61,6.42 L15.62,9.65 C15.42,9.96 15.1,9.96 14.9,9.64 L14.9,9.64 Z M18.09,12.3012649 L18.09,14.7612649 C18.09,15.3512649 17.64,15.8312649 17.09,15.8312649 L3,15.8312649 C2.45,15.8312649 2,15.3512649 2,14.7612649 L2,4.07126488 C2,3.48126488 2.45,3.00126488 3,3.00126488 L9.96,3.00126488 C10.24,3.03126488 10.47,3.28126488 10.47,3.59126488 C10.47,3.92126488 10.22,4.19126488 9.92,4.19126488 L4.16,4.19126488 C3.61,4.19126488 3.16,4.67126488 3.16,5.26126488 L3.16,13.5612649 C3.16,14.1512649 3.61,14.6312649 4.16,14.6312649 L15.95,14.6312649 C16.5,14.6312649 16.95,14.1512649 16.95,13.5612649 L16.95,10.1512649 C17,9.87126488 17.22,9.66126488 17.49,9.66126488 L17.54,9.66126488 C17.84,9.66126488 18.09,9.93126488 18.09,10.2612649 L18.09,12.3012649 C18.09,12.6312649 17.84,12.9012649 17.54,12.9012649 C17.84,12.9012649 18.09,12.6312649 18.09,12.3012649 Z M10.15,6.72126488 L4.38,6.72126488 C4.11,6.72126488 3.88,6.49126488 3.88,6.22126488 C3.88,5.95126488 4.11,5.72126488 4.38,5.72126488 L10.15,5.72126488 C10.42,5.72126488 10.65,5.95126488 10.65,6.22126488 C10.65,6.50126488 10.43,6.72126488 10.15,6.72126488 Z M10.15,9.82126488 L4.38,9.82126488 C4.11,9.82126488 3.88,9.59126488 3.88,9.32126488 C3.88,9.05126488 4.11,8.82126488 4.38,8.82126488 L10.15,8.82126488 C10.42,8.82126488 10.65,9.05126488 10.65,9.32126488 C10.65,9.60126488 10.43,9.82126488 10.15,9.82126488 Z M14.12,12.9212649 L4.38,12.9212649 C4.11,12.9212649 3.88,12.6912649 3.88,12.4212649 C3.88,12.1412649 4.11,11.9212649 4.38,11.9212649 L14.11,11.9212649 C14.39,11.9212649 14.61,12.1512649 14.61,12.4212649 C14.62,12.7012649 14.39,12.9212649 14.12,12.9212649 Z" id="形状" fill="#FF4646"></path>
            </g>
        </g>
    </g>
</svg>