<?xml version="1.0" encoding="UTF-8"?>
<svg width="16px" height="18px" viewBox="0 0 16 18" version="1.1" xmlns="http://www.w3.org/2000/svg" xmlns:xlink="http://www.w3.org/1999/xlink">
    <!-- Generator: Sketch 56 (81588) - https://sketch.com -->
    <title>删除</title>
    <desc>Created with Sketch.</desc>
    <g id="页面-1" stroke="none" stroke-width="1" fill="none" fill-rule="evenodd">
        <g id="指标管理" transform="translate(-1318.000000, -349.000000)" fill-rule="nonzero">
            <g id="删除" transform="translate(1316.000000, 348.000000)">
                <rect id="矩形" fill="#000000" opacity="0" x="0" y="0" width="20" height="20"></rect>
                <path d="M17.1875,4.6875 L13.75,4.6875 L13.75,3.4375 C13.75,2.40625 12.90625,1.5625 11.875,1.5625 L8.125,1.5625 C7.09375,1.5625 6.25,2.40625 6.25,3.4375 L6.25,4.6875 L2.8125,4.6875 C2.46875,4.6875 2.1875,4.96875 2.1875,5.3125 C2.1875,5.65625 2.46875,5.9375 2.8125,5.9375 L3.75,5.9375 L3.75,15.9375 C3.75,17.3125 4.875,18.4375 6.25,18.4375 L13.75,18.4375 C15.125,18.4375 16.25,17.3125 16.25,15.9375 L16.25,5.9375 L17.1875,5.9375 C17.53125,5.9375 17.8125,5.65625 17.8125,5.3125 C17.8125,4.96875 17.53125,4.6875 17.1875,4.6875 Z M7.5,3.4375 C7.5,3.09375 7.78125,2.8125 8.125,2.8125 L11.875,2.8125 C12.21875,2.8125 12.5,3.09375 12.5,3.4375 L12.5,4.6875 L7.5,4.6875 L7.5,3.4375 Z M15,15.9375 C15,16.625 14.4375,17.1875 13.75,17.1875 L6.25,17.1875 C5.5625,17.1875 5,16.625 5,15.9375 L5,5.9375 L15,5.9375 L15,15.9375 Z" id="形状" fill="#2C72FF"></path>
                <path d="M8.125,8.4375 C7.78125,8.4375 7.5,8.71875 7.5,9.0625 L7.5,14.0625 C7.5,14.40625 7.78125,14.6875 8.125,14.6875 C8.46875,14.6875 8.75,14.40625 8.75,14.0625 L8.75,9.0625 C8.75,8.71875 8.46875,8.4375 8.125,8.4375 Z M11.875,8.4375 C11.53125,8.4375 11.25,8.71875 11.25,9.0625 L11.25,14.0625 C11.25,14.40625 11.53125,14.6875 11.875,14.6875 C12.21875,14.6875 12.5,14.40625 12.5,14.0625 L12.5,9.0625 C12.5,8.71875 12.21875,8.4375 11.875,8.4375 Z" id="形状" fill="#2C72FF"></path>
            </g>
        </g>
    </g>
</svg>