<?xml version="1.0" encoding="UTF-8"?>
<svg width="14px" height="14px" viewBox="0 0 14 14" version="1.1" xmlns="http://www.w3.org/2000/svg" xmlns:xlink="http://www.w3.org/1999/xlink">
    <!-- Generator: Sketch 56 (81588) - https://sketch.com -->
    <title>修改</title>
    <desc>Created with Sketch.</desc>
    <g id="页面-1" stroke="none" stroke-width="1" fill="none" fill-rule="evenodd">
        <g id="指标管理" transform="translate(-1259.000000, -351.000000)" fill-rule="nonzero">
            <g id="修改" transform="translate(1256.000000, 348.000000)">
                <rect id="矩形" fill="#000000" opacity="0" x="0" y="0" width="20" height="20"></rect>
                <path d="M16.125,8.75 C15.9305326,8.74997109 15.744206,8.82806831 15.6078771,8.96674778 C15.4715481,9.10542726 15.3966471,9.29306146 15.4,9.4875 L15.4,14.2375 C15.393243,14.8421923 14.9046923,15.330743 14.3,15.3375 L5.7,15.3375 C5.09530772,15.330743 4.60675697,14.8421923 4.6,14.2375 L4.6,5.6125 C4.60675697,5.00780772 5.09530772,4.51925697 5.7,4.5125 L10.55,4.5125 C10.744585,4.50605266 10.9283999,4.42161451 11.0600644,4.27819433 C11.1917288,4.13477415 11.260177,3.94442556 11.25,3.75 C11.2476917,3.56597329 11.167479,3.39155095 11.0292695,3.27002193 C10.89106,3.14849292 10.7078103,3.09125 10.525,3.1125 L5.7,3.1125 C4.31928813,3.1125 3.2,4.23178813 3.2,5.6125 L3.2,14.2 C3.2,15.5807119 4.31928813,16.7 5.7,16.7 L14.2875,16.7 C15.6682119,16.7 16.7875,15.5807119 16.7875,14.2 L16.7875,9.5375 C16.7625,9.0875 16.4875,8.75 16.125,8.75 Z" id="路径" fill="#2C72FF"></path>
                <path d="M7.075,12.65 C7.33068985,12.8928582 7.73181015,12.8928582 7.9875,12.65 L16.0375,4.6 C16.2548071,4.43055143 16.3549209,4.15098694 16.2945804,3.88211107 C16.2342399,3.61323519 16.0242648,3.40326011 15.7553889,3.34291961 C15.4865131,3.28257911 15.2069486,3.38269286 15.0375,3.6 L7.075,11.7375 C6.89147725,12.013984 6.89147725,12.373516 7.075,12.65 L7.075,12.65 Z" id="路径" fill="#2C72FF"></path>
            </g>
        </g>
    </g>
</svg>